<?xml version="1.0" standalone="no"?><svg xmlns="http://www.w3.org/2000/svg" viewBox="0 0 1440 320"><path fill="#b49c73" fill-opacity="1" d="M0,256L26.7,218.7C53.3,181,107,107,160,112C213.3,117,267,203,320,245.3C373.3,288,427,288,480,256C533.3,224,587,160,640,138.7C693.3,117,747,139,800,149.3C853.3,160,907,160,960,138.7C1013.3,117,1067,75,1120,69.3C1173.3,64,1227,96,1280,106.7C1333.3,117,1387,107,1413,101.3L1440,96L1440,320L1413.3,320C1386.7,320,1333,320,1280,320C1226.7,320,1173,320,1120,320C1066.7,320,1013,320,960,320C906.7,320,853,320,800,320C746.7,320,693,320,640,320C586.7,320,533,320,480,320C426.7,320,373,320,320,320C266.7,320,213,320,160,320C106.7,320,53,320,27,320L0,320Z"></path></svg>